<svg data-v-423bf9ae="" xmlns="http://www.w3.org/2000/svg" viewBox="0 0 345 90" class="iconLeft"><!----><!----><!----><g data-v-423bf9ae="" id="e50a6475-bda9-40d9-9774-6ceaf07f2b42" fill="#D8BDBB" transform="matrix(4.765686995457814,0,0,4.765686995457814,149.97343653396607,0.9412243282466832)"><path d="M1.19 12.61L1.19 5.78L2.06 5.78L2.06 6.92L2.06 6.92Q2.18 6.58 2.46 6.29L2.46 6.29L2.46 6.29Q2.73 5.99 3.12 5.81L3.12 5.81L3.12 5.81Q3.51 5.63 3.95 5.63L3.95 5.63L3.95 5.63Q4.72 5.63 5.29 6.01L5.29 6.01L5.29 6.01Q5.85 6.38 6.08 7.12L6.08 7.12L6.08 7.12Q6.38 6.40 6.91 6.02L6.91 6.02L6.91 6.02Q7.44 5.63 8.16 5.63L8.16 5.63L8.16 5.63Q8.97 5.63 9.49 6.01L9.49 6.01L9.49 6.01Q10.01 6.38 10.26 7.01L10.26 7.01L10.26 7.01Q10.50 7.64 10.50 8.45L10.50 8.45L10.50 12.61L9.63 12.61L9.63 8.52L9.63 8.52Q9.63 7.63 9.28 6.98L9.28 6.98L9.28 6.98Q8.93 6.33 8.08 6.33L8.08 6.33L8.08 6.33Q7.52 6.33 7.11 6.69L7.11 6.69L7.11 6.69Q6.70 7.05 6.49 7.63L6.49 7.63L6.49 7.63Q6.28 8.20 6.28 8.81L6.28 8.81L6.28 12.61L5.41 12.61L5.41 8.49L5.41 8.49Q5.41 7.59 5.07 6.96L5.07 6.96L5.07 6.96Q4.72 6.33 3.88 6.33L3.88 6.33L3.88 6.33Q3.31 6.33 2.90 6.73L2.90 6.73L2.90 6.73Q2.48 7.14 2.27 7.77L2.27 7.77L2.27 7.77Q2.06 8.41 2.06 9.09L2.06 9.09L2.06 12.61L1.19 12.61ZM13.32 15.54L14.46 12.61L11.85 5.78L12.80 5.78L14.87 11.57L16.86 5.78L17.79 5.78L14.20 15.54L13.32 15.54ZM21.14 12.74L21.14 12.74Q20.54 12.74 20.04 12.52L20.04 12.52L20.04 12.52Q19.54 12.30 19.19 11.93L19.19 11.93L19.19 11.93Q18.84 11.55 18.68 11.11L18.68 11.11L19.43 10.70L19.43 10.70Q19.62 11.31 20.07 11.68L20.07 11.68L20.07 11.68Q20.52 12.04 21.19 12.04L21.19 12.04L21.19 12.04Q21.80 12.04 22.19 11.74L22.19 11.74L22.19 11.74Q22.59 11.44 22.59 10.84L22.59 10.84L22.59 10.84Q22.59 10.38 22.35 10.10L22.35 10.10L22.35 10.10Q22.11 9.81 21.77 9.65L21.77 9.65L21.77 9.65Q21.43 9.49 20.84 9.29L20.84 9.29L20.84 9.29Q20.20 9.08 19.82 8.89L19.82 8.89L19.82 8.89Q19.43 8.71 19.17 8.36L19.17 8.36L19.17 8.36Q18.91 8.02 18.91 7.46L18.91 7.46L18.91 7.46Q18.91 6.90 19.19 6.48L19.19 6.48L19.19 6.48Q19.47 6.06 19.94 5.85L19.94 5.85L19.94 5.85Q20.41 5.63 20.98 5.63L20.98 5.63L20.98 5.63Q21.72 5.63 22.27 5.99L22.27 5.99L22.27 5.99Q22.83 6.35 23.13 6.97L23.13 6.97L22.52 7.33L22.52 7.33Q22.29 6.84 21.89 6.59L21.89 6.59L21.89 6.59Q21.49 6.33 20.95 6.33L20.95 6.33L20.95 6.33Q20.37 6.33 20.02 6.62L20.02 6.62L20.02 6.62Q19.67 6.90 19.67 7.37L19.67 7.37L19.67 7.37Q19.67 7.73 19.89 7.97L19.89 7.97L19.89 7.97Q20.10 8.20 20.42 8.34L20.42 8.34L20.42 8.34Q20.73 8.48 21.28 8.65L21.28 8.65L21.28 8.65Q21.97 8.87 22.39 9.07L22.39 9.07L22.39 9.07Q22.81 9.28 23.11 9.67L23.11 9.67L23.11 9.67Q23.41 10.06 23.41 10.70L23.41 10.70L23.41 10.70Q23.41 11.35 23.10 11.82L23.10 11.82L23.10 11.82Q22.78 12.28 22.26 12.51L22.26 12.51L22.26 12.51Q21.75 12.74 21.14 12.74L21.14 12.74ZM26.69 12.74L26.69 12.74Q26.06 12.74 25.57 12.50L25.57 12.50L25.57 12.50Q25.08 12.26 24.81 11.82L24.81 11.82L24.81 11.82Q24.53 11.37 24.53 10.76L24.53 10.76L24.53 10.76Q24.53 8.74 27.61 8.74L27.61 8.74L29.13 8.74L29.13 8.74Q29.13 7.62 28.72 7L28.72 7L28.72 7Q28.31 6.38 27.36 6.38L27.36 6.38L27.36 6.38Q26.17 6.38 25.40 7.42L25.40 7.42L24.79 6.94L24.79 6.94Q25.72 5.63 27.29 5.63L27.29 5.63L27.29 5.63Q28.13 5.63 28.71 5.97L28.71 5.97L28.71 5.97Q29.30 6.32 29.60 6.94L29.60 6.94L29.60 6.94Q29.89 7.57 29.89 8.41L29.89 8.41L29.89 12.61L29.16 12.61L29.16 11.20L29.16 11.20Q28.81 11.97 28.15 12.36L28.15 12.36L28.15 12.36Q27.49 12.74 26.69 12.74L26.69 12.74ZM26.78 12.02L26.78 12.02Q27.49 12.02 28.03 11.62L28.03 11.62L28.03 11.62Q28.56 11.23 28.84 10.63L28.84 10.63L28.84 10.63Q29.13 10.02 29.13 9.41L29.13 9.41L27.71 9.41L27.71 9.41Q26.54 9.41 25.99 9.72L25.99 9.72L25.99 9.72Q25.43 10.03 25.43 10.77L25.43 10.77L25.43 10.77Q25.43 11.42 25.80 11.72L25.80 11.72L25.80 11.72Q26.17 12.02 26.78 12.02L26.78 12.02ZM33.12 12.74L33.12 12.74Q32.66 12.74 32.44 12.57L32.44 12.57L32.44 12.57Q32.22 12.39 32.16 12.13L32.16 12.13L32.16 12.13Q32.09 11.87 32.09 11.46L32.09 11.46L32.09 11.22L32.09 2.95L32.96 2.95L32.96 11.64L32.96 11.64Q32.96 11.74 32.96 11.76L32.96 11.76L32.96 11.76Q32.96 11.78 33.03 11.89L33.03 11.89L33.03 11.89Q33.09 12.00 33.24 12.00L33.24 12.00L33.24 12.00Q33.61 12.00 33.95 11.94L33.95 11.94L33.95 12.61L33.95 12.61Q33.81 12.66 33.58 12.70L33.58 12.70L33.58 12.70Q33.35 12.74 33.12 12.74L33.12 12.74ZM38.04 12.69L38.04 12.69Q37.06 12.69 36.39 12.22L36.39 12.22L36.39 12.22Q35.72 11.76 35.38 10.98L35.38 10.98L35.38 10.98Q35.05 10.19 35.05 9.23L35.05 9.23L35.05 9.23Q35.05 8.28 35.38 7.47L35.38 7.47L35.38 7.47Q35.71 6.67 36.36 6.18L36.36 6.18L36.36 6.18Q37.00 5.69 37.92 5.69L37.92 5.69L37.92 5.69Q38.94 5.69 39.58 6.16L39.58 6.16L39.58 6.16Q40.21 6.64 40.48 7.38L40.48 7.38L40.48 7.38Q40.75 8.13 40.75 9.00L40.75 9.00L40.75 9.00Q40.75 9.24 40.72 9.48L40.72 9.48L35.94 9.48L35.94 9.48Q35.92 10.15 36.16 10.71L36.16 10.71L36.16 10.71Q36.39 11.27 36.87 11.61L36.87 11.61L36.87 11.61Q37.34 11.95 38.02 11.95L38.02 11.95L38.02 11.95Q38.68 11.95 39.15 11.79L39.15 11.79L39.15 11.79Q39.61 11.63 40.00 11.22L40.00 11.22L40.59 11.67L40.59 11.67Q40.04 12.21 39.44 12.45L39.44 12.45L39.44 12.45Q38.84 12.69 38.04 12.69L38.04 12.69ZM35.94 8.74L39.94 8.74L39.94 8.74Q39.94 8.13 39.74 7.60L39.74 7.60L39.74 7.60Q39.55 7.07 39.09 6.73L39.09 6.73L39.09 6.73Q38.64 6.39 37.92 6.39L37.92 6.39L37.92 6.39Q37.29 6.39 36.85 6.71L36.85 6.71L36.85 6.71Q36.41 7.03 36.19 7.57L36.19 7.57L36.19 7.57Q35.96 8.10 35.94 8.74L35.94 8.74Z"></path></g><!----><g data-v-423bf9ae="" id="c9ea2c45-accb-46c6-9991-e83372d85288" transform="matrix(1.375357204067142,0,0,1.375357204067142,-0.08505200732210483,-23.479583975346458)" stroke="none" fill="#D8BDBB"><path d="M49.1 45.7V33.2c0-1.1-.8-2.1-1.9-2.2-1.3-.1-2.3.8-2.4 2-6.8 6.5-16.7 9-22.6 10v-2H8.7c-2.7 0-4.9 2.2-4.9 4.9V48H2.3c-.9 0-1.6.7-1.6 1.6v6.1c0 .9.7 1.6 1.6 1.6h1.5v1.9c0 2.7 2.2 4.9 4.9 4.9h1.2l5.6 18.6.8-.2 2.8-.7.8-.2-2.3-17.5h4.5v-2c5.9 1 15.7 3.5 22.6 10 .1 1.2 1.1 2.2 2.4 2C48.2 74 49 73 49 71.9V59.3c2.8-1 4.7-3.7 4.7-6.8.1-3.1-1.8-5.8-4.6-6.8zM17.1 59H8.9V46.1H17V59zm44.2-35.2c-8.4 8.4-8.7 21.8-.9 30.5l.2.2c-.8 1.8-2.3 4.1-4.6 5.2-.8.4-.6 1.5.3 1.6 2.5.4 6.1 0 9.5-2.6 8.5 5 19.7 3.9 27-3.5 8.7-8.7 8.7-22.8 0-31.5-8.7-8.6-22.8-8.6-31.5.1zm20.9 22.8c-.8 1-1.8 1.6-3 1.9-.5.1-.8.4-.7 1v1.6c0 .5-.2.7-.7.7h-1.7c-.5 0-.7-.3-.7-.8v-1.2c0-.9 0-.9-.9-1-1.1-.2-2.1-.4-3.1-.9-.8-.4-.8-.6-.6-1.4.2-.6.3-1.2.5-1.8.2-.7.4-.8 1-.4 1.1.6 2.2.9 3.4 1 .8.1 1.5 0 2.2-.3 1.3-.6 1.5-2.1.4-3-.4-.3-.8-.5-1.3-.7-1.2-.5-2.4-.9-3.5-1.6-1.8-1.1-2.9-2.5-2.8-4.7.1-2.5 1.5-4 3.8-4.8.9-.3.9-.3.9-1.3v-1c0-.7.1-.9.9-.9h.7c1.5 0 1.5 0 1.6 1.5 0 1.1 0 1.1 1.1 1.3.8.1 1.6.4 2.4.7.4.2.6.5.5.9-.2.7-.4 1.3-.6 2-.2.6-.4.7-1 .4-1.2-.6-2.5-.8-3.8-.8-.4 0-.7.1-1 .2-1.2.5-1.3 1.8-.4 2.6.5.4 1.1.7 1.7.9 1 .4 2.1.8 3 1.4 3.1 2 3.9 5.9 1.7 8.5z"></path></g><!----></svg>